<?xml version="1.0" encoding="utf-8"?>
<!-- Generator: Adobe Illustrator 23.0.3, SVG Export Plug-In . SVG Version: 6.00 Build 0)  -->
<svg version="1.1" id="Layer_1" xmlns="http://www.w3.org/2000/svg" xmlns:xlink="http://www.w3.org/1999/xlink" x="0px" y="0px"
	 viewBox="0 0 350 200" style="enable-background:new 0 0 350 200;" xml:space="preserve">
<style type="text/css">
	.st0{fill:none;stroke:#404041;stroke-width:2;stroke-miterlimit:10;}
	.st1{fill:none;stroke:#F4CDD0;stroke-miterlimit:10;}
	.st2{fill:#F4CDD0;}
	.st3{fill:#404041;}
	.st4{fill:#DC5A64;}
	.st5{fill:none;stroke:#DC5A64;stroke-width:3;stroke-miterlimit:10;}
	.st6{fill:none;stroke:#DC5A64;stroke-width:2;stroke-miterlimit:10;}
	.st7{fill:none;stroke:#F4CDD0;stroke-linecap:round;stroke-miterlimit:10;}
	.st8{fill:#F2F2F2;}
	.st9{fill:#FFFFFF;}
	.st10{clip-path:url(#SVGID_2_);}
	.st11{fill:#FFFFFF;stroke:#404041;stroke-width:2;stroke-miterlimit:10;}
	.st12{fill:none;stroke:#F4CDD0;stroke-width:1.5;stroke-linecap:square;stroke-miterlimit:10;}
	.st13{fill:none;stroke:#F4CDD0;stroke-linecap:square;stroke-miterlimit:10;}
	.st14{fill:none;stroke:#DC5A64;stroke-width:1.5;stroke-miterlimit:10;}
	.st15{fill:none;stroke:#404041;stroke-width:2.5;stroke-linecap:round;stroke-miterlimit:10;}
	.st16{fill:none;stroke:#404041;stroke-width:2.5;stroke-miterlimit:10;}
	.st17{fill:none;stroke:#DC5A64;stroke-width:2.5;stroke-miterlimit:10;}
	.st18{fill:none;stroke:#404041;stroke-width:6;stroke-miterlimit:10;}
	.st19{fill:none;stroke:#404041;stroke-width:2.5;stroke-linejoin:round;stroke-miterlimit:10;}
	.st20{fill:none;stroke:#F4CDD0;stroke-width:1.5;stroke-miterlimit:10;}
	.st21{fill:none;stroke:#DC5A64;stroke-width:2.5;stroke-linecap:round;stroke-miterlimit:10;}
	.st22{fill:none;stroke:#F2C8C4;stroke-width:1.5;stroke-miterlimit:10;}
	.st23{fill:none;stroke:#414142;stroke-width:2.5;stroke-miterlimit:10;}
	.st24{fill:none;stroke:#DC5B64;stroke-width:2.5;stroke-miterlimit:10;}
</style>
<g>
	<g>
		<line class="st12" x1="233.3" y1="148.6" x2="233.3" y2="51.4"/>
	</g>
	<g>
		<line class="st12" x1="116.7" y1="148.6" x2="116.7" y2="51.4"/>
	</g>
	<g>
		<line class="st13" x1="19.4" y1="143.3" x2="19.4" y2="56.7"/>
	</g>
	<g>
		<line class="st12" x1="38.9" y1="126.7" x2="38.9" y2="73.3"/>
	</g>
	<g>
		<line class="st14" x1="77.8" y1="128.7" x2="77.8" y2="71.3"/>
	</g>
	<g>
		<line class="st12" x1="97.2" y1="143.3" x2="97.2" y2="56.7"/>
	</g>
	<g>
		<line class="st12" x1="136.1" y1="143.3" x2="136.1" y2="56.7"/>
	</g>
	<g>
		<line class="st12" x1="155.6" y1="126.7" x2="155.6" y2="73.3"/>
	</g>
	<g>
		<line class="st12" x1="194.4" y1="126.7" x2="194.4" y2="73.3"/>
	</g>
	<g>
		<line class="st12" x1="213.9" y1="143.3" x2="213.9" y2="56.7"/>
	</g>
	<g>
		<line class="st12" x1="252.8" y1="143.3" x2="252.8" y2="56.7"/>
	</g>
	<g>
		<line class="st14" x1="272.2" y1="128.7" x2="272.2" y2="71.3"/>
	</g>
	<g>
		<line class="st12" x1="311.1" y1="126.7" x2="311.1" y2="73.3"/>
	</g>
	<g>
		<line class="st14" x1="330.6" y1="143.3" x2="330.6" y2="56.7"/>
	</g>
	<g>
		<line class="st14" x1="311.1" y1="100" x2="311.1" y2="71.3"/>
	</g>
	<g>
		<line class="st14" x1="116.7" y1="100" x2="116.7" y2="51.4"/>
	</g>
	<g>
		<line class="st14" x1="136.1" y1="100" x2="136.1" y2="143.3"/>
		<line class="st14" x1="38.9" y1="100" x2="38.9" y2="128.7"/>
		<line class="st14" x1="19.4" y1="100" x2="19.4" y2="56.7"/>
	</g>
	<g>
		<line class="st14" x1="213.9" y1="100" x2="213.9" y2="143.3"/>
	</g>
	<g>
		<line class="st14" x1="233.3" y1="100" x2="233.3" y2="148.6"/>
	</g>
	<g>
		<line class="st14" x1="252.8" y1="100" x2="252.8" y2="56.7"/>
	</g>
	<path class="st3" d="M83,67.5c10.1-10.1,20.8-14.8,33.7-14.8s23.6,4.7,33.7,14.8c8.1,8.1,14.9,18.9,21.2,29.4
		c0.3-0.5,0.6-1,0.9-1.6l0.6-1C159,71,144,50.1,116.7,50.1c-29.9,0-44.9,25-59.5,49.2c-7.1,11.9-14.5,24.2-23.5,33.2
		C23.6,142.6,13,147.3,0.1,147.3v2.6c29.8-0.1,44.8-25.1,59.3-49.2C66.6,88.8,74,76.5,83,67.5z"/>
	<path class="st3" d="M267,132.5c-10.1,10.1-20.8,14.8-33.7,14.8s-23.6-4.7-33.7-14.8c-8.1-8.1-14.9-18.9-21.2-29.4
		c-0.3,0.5-0.6,1-0.9,1.5l-0.6,1c14.1,23.3,29.1,44.3,56.5,44.3c29.9,0,44.9-25,59.5-49.2c7.1-11.9,14.5-24.2,23.5-33.2
		c10.1-10.1,20.7-14.8,33.6-14.8v-2.6C320,50.2,305,75.2,290.5,99.3l0,0l-0.1-0.1l0,0l0.1,0.1C283.4,111.2,276,123.5,267,132.5z"/>
	<path class="st3" d="M295.1,103.1c-0.4,0.6-0.7,1.2-1.1,1.8l-0.5,0.8c14.1,23.3,29.1,44.2,56.3,44.3v-2.6
		c-12.8,0-23.5-4.7-33.6-14.8C308.2,124.4,301.4,113.6,295.1,103.1z"/>
	<path class="st3" d="M0.1,50.1v2.6c12.8,0,23.5,4.7,33.6,14.8c8.1,8.1,14.9,18.9,21.2,29.4c0.3-0.5,0.6-1.1,1-1.6l0.6-0.9
		C42.3,71.1,27.4,50.2,0.1,50.1z"/>
	<path class="st3" d="M233.3,50.1c-24.8,0-39.3,17.3-51.3,36c-2.8,4.4-5.5,8.9-8.2,13.3c-2.5,4.2-5,8.3-7.5,12.2l-0.2,0.4
		c-0.1,0.2-0.2,0.3-0.3,0.5c-0.6,0.9-1.2,1.8-1.7,2.6l-0.2,0.3c-0.1,0.2-0.2,0.3-0.3,0.5c-0.2,0.3-0.3,0.5-0.5,0.8l0,0.1
		c-4.4,6.6-8.6,11.7-12.7,15.8c-10.1,10.1-20.8,14.8-33.7,14.8s-23.6-4.7-33.7-14.8c-8.1-8.1-14.9-18.9-21.2-29.4
		c-0.3,0.6-0.7,1.1-1,1.7l-0.5,0.8c14.1,23.3,29.1,44.3,56.5,44.3c10.8,0,20.3-3.2,29.1-9.9c9.1-6.9,16.1-16.8,20.6-23.6
		c1.5-2.3,3.1-4.7,4.9-7.7l0.2-0.3c1.5-2.5,3-5,4.7-7.7c1.5-2.5,2.8-4.7,4-6.6l0.7-1.1c1.5-2.4,2.8-4.5,4.2-6.7
		c0-0.1,0.1-0.2,0.1-0.2c0-0.1,0.1-0.2,0.1-0.2l0.1-0.1c5.2-7.9,9.7-13.7,14.3-18.2c10.1-10.1,20.8-14.8,33.7-14.8
		s23.6,4.7,33.7,14.8c8.1,8.1,14.9,18.9,21.2,29.4c0.3-0.5,0.6-1,0.9-1.6l0.6-1C275.7,71,260.7,50.1,233.3,50.1z"/>
</g>
</svg>
